<mxfile host="app.diagrams.net" agent="Mozilla/5.0 (Windows NT 10.0; Win64; x64) AppleWebKit/537.36 (KHTML, like Gecko) Chrome/128.0.0.0 Safari/537.36" version="24.7.7">
  <diagram name="Page-1" id="GGyFfgWwIqajwPMYKQHu">
    <mxGraphModel dx="1434" dy="772" grid="1" gridSize="10" guides="1" tooltips="1" connect="1" arrows="1" fold="1" page="1" pageScale="1" pageWidth="850" pageHeight="1100" math="0" shadow="0">
      <root>
        <mxCell id="0" />
        <mxCell id="1" parent="0" />
        <mxCell id="AJXiktNUl3CTBZLUBi51-2" value="" style="swimlane;startSize=0;" vertex="1" parent="1">
          <mxGeometry x="320" y="300" width="200" height="200" as="geometry" />
        </mxCell>
        <mxCell id="AJXiktNUl3CTBZLUBi51-3" value="Django Web App" style="text;html=1;align=center;verticalAlign=middle;resizable=0;points=[];autosize=1;strokeColor=none;fillColor=default;" vertex="1" parent="AJXiktNUl3CTBZLUBi51-2">
          <mxGeometry x="40" y="85" width="110" height="30" as="geometry" />
        </mxCell>
      </root>
    </mxGraphModel>
  </diagram>
</mxfile>
